# xmcd CD database file
#
# Track frame offsets:
#	150
#	12970
#	26550
#	42715
#	56020
#	70740
#	83622
#	98452
#	111855
#	125465
#	137912
#	150522
#
# Disc length: 2190 seconds
#
# Revision: 0
# Processed by: cddbd v1.5.1PL2 Copyright (c) Steve Scherf et al.
# Submitted via: CDex 1.50beta9
#
DISCID=96088c0c
DTITLE=Beny More - Asi Es...
DYEAR=1988
DGENRE=Salsa
TTITLE0=Tumba Tumbador
TTITLE1=El Santo De Tia Juliana
TTITLE2=Guantanamo
TTITLE3=Oye Una Cancion Para Ti
TTITLE4=Manzanillo
TTITLE5=Como Puedes Pensar
TTITLE6=A Mi Padre
TTITLE7=Adios Palma Soriano
TTITLE8=Porque Pensar Asi
TTITLE9=Marianao
TTITLE10=Sin Una Despedida
TTITLE11=Asi Es La Humanidad
EXTD=YEAR: 1988
EXTT0=
EXTT1=
EXTT2=
EXTT3=
EXTT4=
EXTT5=
EXTT6=
EXTT7=
EXTT8=
EXTT9=
EXTT10=
EXTT11=
PLAYORDER=
